<svg xmlns="http://www.w3.org/2000/svg" xmlns:xlink="http://www.w3.org/1999/xlink" width="34" height="32" viewBox="0 0 34 32">
  <defs>
    <clipPath id="clip-path">
      <rect id="Rectangle_1205" data-name="Rectangle 1205" width="34" height="32" transform="translate(0 0)" fill="#fff" stroke="#707070" stroke-width="1"/>
    </clipPath>
  </defs>
  <g id="Mask_Group_32" data-name="Mask Group 32" transform="translate(0 0)" clip-path="url(#clip-path)">
    <g id="Group_1129" data-name="Group 1129" transform="translate(-1.338 -6.199)">
      <path id="Path_2846" data-name="Path 2846" d="M22.6,27.359,1.262,12.068C-.9,10.519-.169,7.3,2.524,6.544L25.179.187A3.113,3.113,0,0,1,28.09.581a3.375,3.375,0,0,1,1.391,2.685L28.163,24.913A3.544,3.544,0,0,1,22.6,27.359Z" transform="matrix(-0.259, -0.966, 0.966, -0.259, 8.148, 40.462)" fill="#ffbb39"/>
      <path id="Path_2847" data-name="Path 2847" d="M12.973,30.561.376,5.15a3.64,3.64,0,0,1,.27-3.686A3.371,3.371,0,0,1,3.945.041L27.239,3.783a3.448,3.448,0,0,1,2.532,1.892,3.648,3.648,0,0,1,0,3.225l-10.7,21.67a3.378,3.378,0,0,1-6.1-.008Z" transform="matrix(-0.259, -0.966, 0.966, -0.259, 7.814, 37.52)" fill="#ec5858"/>
      <path id="Path_2848" data-name="Path 2848" d="M25.786,1.872,14.207-.005,0,4l5.687,11.58,13.3,9.575a3.374,3.374,0,0,0,.956.475l5.034-10.284Z" transform="matrix(-0.259, -0.966, 0.966, -0.259, 9.392, 36.362)" fill="#fff"/>
    </g>
  </g>
</svg>
