<svg xmlns="http://www.w3.org/2000/svg" xmlns:xlink="http://www.w3.org/1999/xlink" width="161" height="38" viewBox="0 0 161 38">
  <defs>
    <clipPath id="clip-path">
      <rect id="Rectangle_1203" data-name="Rectangle 1203" width="40.308" height="37.991" transform="translate(0 0)" fill="#fff" stroke="#707070" stroke-width="1"/>
    </clipPath>
  </defs>
  <g id="Group_1133" data-name="Group 1133" transform="translate(0 0)">
    <g id="Group_1123" data-name="Group 1123" transform="translate(44.941 0)">
      <path id="Path_2838" data-name="Path 2838" d="M18.367-39.553h4.32V-58.7H16.826L13.689-48.221,10.58-58.7H4.664v19.143H9.039V-51.808l3.687,12.255h1.9l3.742-12.255ZM24.724-46.5c0,4.42,2.587,7.29,6.439,7.29a6.9,6.9,0,0,0,4.953-1.98l-1.761-2.5a3.875,3.875,0,0,1-2.724,1.205,2.767,2.767,0,0,1-2.917-2.669h8.172V-46.3c0-4.448-2.2-7.462-5.944-7.462C27.09-53.76,24.724-50.517,24.724-46.5Zm6.164-3.989c1.651,0,2.146,1.435,2.2,2.554h-4.4C28.769-49.053,29.291-50.488,30.887-50.488Zm7.1,3.989c0,4.42,2.587,7.29,6.439,7.29a6.9,6.9,0,0,0,4.953-1.98l-1.761-2.5a3.875,3.875,0,0,1-2.724,1.205,2.767,2.767,0,0,1-2.917-2.669h8.172V-46.3c0-4.448-2.2-7.462-5.944-7.462C40.353-53.76,37.987-50.517,37.987-46.5Zm6.164-3.989c1.651,0,2.146,1.435,2.2,2.554h-4.4C42.032-49.053,42.555-50.488,44.15-50.488ZM56.368-39.209a4.318,4.318,0,0,0,2.752-.775L58.4-43.2a1.338,1.338,0,0,1-.908.316c-.605,0-.908-.488-.908-1.291V-49.8h2.146v-3.616H56.588V-57.2H52.6v3.788H50.92V-49.8H52.6v6.658C52.6-40.529,53.809-39.209,56.368-39.209Zm4.183-.344h3.99v-1.636a3.877,3.877,0,0,0,3.274,1.98c2.972,0,5.008-2.64,5.008-7.29,0-4.477-2.009-7.261-5.008-7.261a3.752,3.752,0,0,0-3.274,1.98V-58.7H60.55Zm3.99-4.621v-4.621a2.381,2.381,0,0,1,1.954-1.291c1.431,0,2.256,1.464,2.256,3.587,0,2.152-.825,3.616-2.256,3.616A2.322,2.322,0,0,1,64.54-44.174Zm15.767,4.965c4.128,0,6.329-3.415,6.329-7.29s-2.2-7.261-6.329-7.261-6.3,3.387-6.3,7.261S76.18-39.209,80.307-39.209Zm0-3.674c-1.513,0-2.2-1.578-2.2-3.616,0-2.009.688-3.587,2.2-3.587,1.541,0,2.229,1.578,2.229,3.587C82.536-44.461,81.848-42.883,80.307-42.883Zm13.841,3.674c4.128,0,6.329-3.415,6.329-7.29s-2.2-7.261-6.329-7.261-6.3,3.387-6.3,7.261S90.021-39.209,94.148-39.209Zm0-3.674c-1.513,0-2.2-1.578-2.2-3.616,0-2.009.688-3.587,2.2-3.587,1.541,0,2.229,1.578,2.229,3.587C96.377-44.461,95.689-42.883,94.148-42.883Zm15.685,3.329h4.65l-4.21-7.634,3.99-6.228h-4.6l-3.3,5.654V-58.7h-3.99v19.143h3.99v-3.214l1.156-1.808Z" transform="translate(-4.664 77.209)" fill="#302340"/>
      <path id="Path_2839" data-name="Path 2839" d="M3.776-27.448H5.834v-4.814H7.984c2.429,0,3.652-1.834,3.652-3.974,0-2.121-1.224-3.955-3.652-3.955H3.776Zm5.766-8.788c0,1.261-.7,2.1-1.8,2.1H5.834v-4.2h1.91C8.837-38.338,9.542-37.5,9.542-36.236Zm3.17,8.788h1.854v-6.324a2.5,2.5,0,0,1,1.984-1.28,1.964,1.964,0,0,1,.482.057v-1.891a2.988,2.988,0,0,0-2.466,1.567v-1.356H12.712Zm8.658.229c2.54,0,3.875-2.254,3.875-4.853S23.91-36.9,21.37-36.9,17.5-34.669,17.5-32.071,18.83-27.219,21.37-27.219Zm0-1.681c-1.353,0-1.965-1.509-1.965-3.171s.612-3.152,1.965-3.152,1.965,1.49,1.965,3.152S22.723-28.9,21.37-28.9Zm6.062-9.3a1.173,1.173,0,0,0,1.149-1.185,1.178,1.178,0,0,0-1.149-1.2,1.193,1.193,0,0,0-1.168,1.2A1.189,1.189,0,0,0,27.432-38.2Zm.927,1.528H26.505V-26.55c0,.86-.389,1.185-.927,1.185a1.536,1.536,0,0,1-.426-.057l-.222,1.6a3.43,3.43,0,0,0,.927.115c1.65,0,2.5-1.032,2.5-2.847Zm1.261,4.6c0,2.866,1.557,4.853,4.023,4.853a4.043,4.043,0,0,0,3.1-1.414l-.89-1.146a2.728,2.728,0,0,1-2.021.993c-1.446,0-2.262-1.146-2.336-2.656h5.692v-.554c0-2.789-1.3-4.91-3.726-4.91C31.066-36.9,29.62-34.746,29.62-32.071Zm3.819-3.286c1.428,0,1.928,1.414,1.947,2.56H31.474C31.529-33.905,32.048-35.357,33.439-35.357Zm9.974,7.909h2.169L42.56-32.53l2.966-4.146H43.376l-3.152,4.528v-8.043H38.37v12.743h1.854v-2.369l1.075-1.49Z" transform="translate(-3.776 40.592)" fill="#302340"/>
      <ellipse id="Ellipse_14" data-name="Ellipse 14" cx="2.496" cy="2.598" rx="2.496" ry="2.598" transform="translate(111.067 18.513)" fill="#302340"/>
    </g>
    <g id="Mask_Group_30" data-name="Mask Group 30" transform="translate(0 0)" clip-path="url(#clip-path)">
      <g id="Group_1124" data-name="Group 1124" transform="translate(-1.586 -7.36)">
        <path id="Path_2840" data-name="Path 2840" d="M26.845,32.448,1.5,14.309C-1.064,12.471-.2,8.653,3,7.76L29.891.232A3.7,3.7,0,0,1,33.346.7,4,4,0,0,1,35,3.885L33.444,29.55C33.259,32.6,29.413,34.286,26.845,32.448Z" transform="matrix(-0.259, -0.966, 0.966, -0.259, 9.66, 48.037)" fill="#ffbb39"/>
        <path id="Path_2841" data-name="Path 2841" d="M15.414,36.24.449,6.106A4.311,4.311,0,0,1,.767,1.735,4,4,0,0,1,4.684.05L32.338,4.5a4.1,4.1,0,0,1,3.006,2.244,4.321,4.321,0,0,1,.005,3.824l-12.7,25.688a4.013,4.013,0,0,1-7.239-.012Z" transform="matrix(-0.259, -0.966, 0.966, -0.259, 9.264, 44.545)" fill="#ec5858"/>
        <path id="Path_2842" data-name="Path 2842" d="M30.611,2.23,16.865,0,0,4.745,6.756,18.478,22.544,29.836a4.01,4.01,0,0,0,1.135.563l5.971-12.191Z" transform="matrix(-0.259, -0.966, 0.966, -0.259, 11.134, 43.17)" fill="#302340"/>
      </g>
    </g>
  </g>
</svg>
