<svg id="undraw_Co_workers_re_1i6i" xmlns="http://www.w3.org/2000/svg" width="312.587" height="264.025" viewBox="0 0 312.587 264.025">
  <path id="Path_10" data-name="Path 10" d="M808.75,354.635q.551,2.15,1.032,4.322H700.648v-4.322Z" transform="translate(-500.371 -264.298)" fill="#e6e6e6"/>
  <path id="Path_11" data-name="Path 11" d="M928.764,303.326a133.581,133.581,0,0,0-6.136-14.535q-1.075-2.183-2.233-4.322c-.127-.245-.262-.489-.4-.734V315.9h9.431V305.24Z" transform="translate(-623.864 -224.381)" fill="#e6e6e6"/>
  <path id="Path_12" data-name="Path 12" d="M922.629,289.737H920v-4.322h.4Q921.556,287.552,922.629,289.737Z" transform="translate(-623.864 -225.327)" fill="#ccc"/>
  <path id="Path_13" data-name="Path 13" d="M686.412,180.65h-8.766v4.322h9.43v-2.408Z" transform="translate(-381.512 -101.705)" fill="#ccc"/>
  <rect id="Rectangle_4" data-name="Rectangle 4" width="9.429" height="37.322" transform="translate(281.599 54.196)" fill="#e6e6e6"/>
  <rect id="Rectangle_5" data-name="Rectangle 5" width="9.429" height="4.321" transform="translate(281.599 60.089)" fill="#ccc"/>
  <rect id="Rectangle_6" data-name="Rectangle 6" width="9.429" height="4.321" transform="translate(281.599 78.946)" fill="#ccc"/>
  <path id="Path_14" data-name="Path 14" d="M763.809,271.435H729.985a1.97,1.97,0,0,0-1.966,1.967v33.824a2.039,2.039,0,0,0,.083.568,1.971,1.971,0,0,0,1.883,1.4h33.824a1.971,1.971,0,0,0,1.884-1.4,2.032,2.032,0,0,0,.083-.568V273.4A1.969,1.969,0,0,0,763.809,271.435Z" transform="translate(-515.78 -217.456)" fill="#e6e6e6"/>
  <path id="Path_15" data-name="Path 15" d="M764.5,276.935H735.485a1.969,1.969,0,0,0-1.966,1.967v29.017a1.969,1.969,0,0,0,1.967,1.966H764.5a1.969,1.969,0,0,0,1.967-1.966V278.9A1.969,1.969,0,0,0,764.5,276.935Z" transform="translate(-518.877 -220.553)" fill="#fff"/>
  <path id="Path_16" data-name="Path 16" d="M765.961,288.515h-18.9a1.969,1.969,0,0,0-1.966,1.967v18.9a1.969,1.969,0,0,0,1.966,1.966h18.9a1.977,1.977,0,0,0,1.967-1.966v-18.9A1.97,1.97,0,0,0,765.961,288.515Z" transform="translate(-525.396 -227.072)" fill="#ccc"/>
  <path id="Path_17" data-name="Path 17" d="M761.193,317.135l-3.991-6.913a.874.874,0,0,0-1.514,0l-2.914,5.048-3.822-6.619a.874.874,0,0,0-1.514,0l-3.991,6.913-4.748,8.224h9.157l-.907,1.572h18.993Z" transform="translate(-521.793 -238.162)" fill="#fff"/>
  <circle id="Ellipse_2" data-name="Ellipse 2" cx="2.75" cy="2.75" r="2.75" transform="translate(235.241 62.839)" fill="#fff"/>
  <path id="Path_18" data-name="Path 18" d="M930.8,414.9q-.046-2.543-.2-5.06c-.044-.8-.1-1.6-.162-2.4H911.984a1.97,1.97,0,0,0-1.966,1.967v33.824a1.782,1.782,0,0,0,.057.459,1.968,1.968,0,0,0,1.91,1.508h17.008c.088-.5.171-1.005.245-1.508.048-.3.1-.6.14-.9.1-.712.205-1.425.3-2.137q.2-1.455.354-2.924.577-5.264.743-10.641v0q.059-2.025.061-4.068V417.77C930.832,416.809,930.824,415.852,930.8,414.9Z" transform="translate(-618.245 -294.024)" fill="#e6e6e6"/>
  <path id="Path_19" data-name="Path 19" d="M933.894,418q-.046-2.543-.2-5.06H917.485a1.97,1.97,0,0,0-1.967,1.967v29.017a1.969,1.969,0,0,0,1.967,1.967h14.989c.1-.712.205-1.425.3-2.137q.2-1.455.354-2.924.577-5.264.743-10.641v0q.059-2.025.061-4.069v-5.244C933.929,419.905,933.92,418.948,933.894,418Z" transform="translate(-621.342 -297.12)" fill="#fff"/>
  <path id="Path_20" data-name="Path 20" d="M940.414,424.515H929.065a1.97,1.97,0,0,0-1.967,1.967v18.9a1.97,1.97,0,0,0,1.967,1.966h10.58q.577-5.264.743-10.641v0q.059-2.025.061-4.069v-5.244C940.448,426.425,940.44,425.468,940.414,424.515Z" transform="translate(-627.861 -303.64)" fill="#ccc"/>
  <path id="Path_21" data-name="Path 21" d="M936.784,447.791q-.164,5.375-.743,10.641-.157,1.468-.354,2.924h-6.739l.909-1.569H920.7l2.8-4.846,1.949-3.378,3.994-6.913a.87.87,0,0,1,1.512,0l3.824,6.621Z" transform="translate(-624.258 -314.728)" fill="#fff"/>
  <path id="Path_22" data-name="Path 22" d="M779.785,223.217H700.648V218.9h75.213Q777.867,221.012,779.785,223.217Z" transform="translate(-500.371 -187.876)" fill="#e6e6e6"/>
  <path id="Path_23" data-name="Path 23" d="M796.838,160.2q4.837,2.661,9.43,5.7v21.125h-9.43Z" transform="translate(-554.526 -154.829)" fill="#e6e6e6"/>
  <rect id="Rectangle_7" data-name="Rectangle 7" width="9.429" height="4.321" transform="translate(242.312 19.624)" fill="#ccc"/>
  <path id="Path_24" data-name="Path 24" d="M839.529,188.922v10.025H830.1V181.375q3.3,2.406,6.446,5Q838.052,187.624,839.529,188.922Z" transform="translate(-573.251 -166.753)" fill="#e6e6e6"/>
  <path id="Path_25" data-name="Path 25" d="M839.529,195.368v1.774H830.1v-4.318h6.446Q838.052,194.07,839.529,195.368Z" transform="translate(-573.251 -173.199)" fill="#ccc"/>
  <path id="Path_26" data-name="Path 26" d="M755.413,148.466q3.743,1.685,7.359,3.592l-1.94,3.916L754.386,169l-1.918,3.872-3,6.061-.66,1.333-2.688-1.333-5.76-2.854,3.658-7.394h0l1.914-3.872,6.45-13.027,1.9-3.828.022-.044Z" transform="translate(-522.727 -147.915)" fill="#e6e6e6"/>
  <path id="Path_27" data-name="Path 27" d="M535.892,4.182l-1.919,3.876-8.447-4.186,1.9-3.828L527.444,0l1.11.551Z" transform="translate(-295.869)" fill="#ccc"/>
  <rect id="Rectangle_8" data-name="Rectangle 8" width="4.321" height="9.429" transform="matrix(0.444, -0.896, 0.896, 0.444, 221.289, 20.773)" fill="#ccc"/>
  <path id="Path_28" data-name="Path 28" d="M811.363,490.385c-.074.5-.157,1.009-.245,1.508-.153.944-.319,1.879-.5,2.814H700.648v-4.322Z" transform="translate(-500.371 -340.724)" fill="#e6e6e6"/>
  <rect id="Rectangle_9" data-name="Rectangle 9" width="9.429" height="37.322" transform="translate(242.312 113.518)" fill="#e6e6e6"/>
  <rect id="Rectangle_10" data-name="Rectangle 10" width="9.429" height="4.321" transform="translate(242.312 119.411)" fill="#ccc"/>
  <rect id="Rectangle_11" data-name="Rectangle 11" width="9.429" height="4.321" transform="translate(242.312 138.268)" fill="#ccc"/>
  <rect id="Rectangle_12" data-name="Rectangle 12" width="9.429" height="37.322" transform="translate(256.848 113.518)" fill="#e6e6e6"/>
  <rect id="Rectangle_13" data-name="Rectangle 13" width="9.429" height="4.321" transform="translate(256.848 119.411)" fill="#ccc"/>
  <rect id="Rectangle_14" data-name="Rectangle 14" width="9.429" height="4.321" transform="translate(256.848 138.268)" fill="#ccc"/>
  <rect id="Rectangle_15" data-name="Rectangle 15" width="37.322" height="9.429" transform="matrix(0.444, -0.896, 0.896, 0.444, 217.629, 146.811)" fill="#e6e6e6"/>
  <rect id="Rectangle_16" data-name="Rectangle 16" width="4.321" height="9.429" transform="matrix(0.444, -0.896, 0.896, 0.444, 229.656, 122.518)" fill="#ccc"/>
  <rect id="Rectangle_17" data-name="Rectangle 17" width="4.321" height="9.429" transform="matrix(0.444, -0.896, 0.896, 0.444, 221.289, 139.417)" fill="#ccc"/>
  <path id="Path_29" data-name="Path 29" d="M518.562,501.455a8.648,8.648,0,0,1,1.123.77l38.906-12.108,2.194-9.653,15,1.407-2.223,17.465A6.573,6.573,0,0,1,568.069,505l-45.786,7.249a8.625,8.625,0,1,1-3.721-10.793Z" transform="translate(-390.608 -335.139)" fill="#ffb8b8"/>
  <path id="Path_30" data-name="Path 30" d="M648.477,458.667l-.258-4.4v0l-.07-1.206-.76-12.97A10.258,10.258,0,0,0,638.068,429a10.118,10.118,0,0,0-2.333.061,10.288,10.288,0,0,0-8.806,9.256l-1.578,6.564-2.758,11.48a3.679,3.679,0,0,0,1.9,4.143,3.618,3.618,0,0,0,1.368.4l4.6.411,4.427.393,5.109.455.367.031.944.087,3.159.28h.009a3.7,3.7,0,0,0,3.588-1.958,3.6,3.6,0,0,0,.42-1.94Z" transform="translate(-456.368 -306.144)" fill="#1f2933"/>
  <path id="Path_31" data-name="Path 31" d="M700.063,321.284c0,14.957-13.83,12.694-30.89,12.694s-30.89,2.262-30.89-12.694,6.755-41.468,30.89-41.468C694.139,279.815,700.063,306.327,700.063,321.284Z" transform="translate(-465.26 -222.174)" fill="#2f2e41"/>
  <circle id="Ellipse_3" data-name="Ellipse 3" cx="20.786" cy="20.786" r="20.786" transform="translate(174.416 90.992) rotate(-45)" fill="#ffb8b8"/>
  <path id="Path_32" data-name="Path 32" d="M696.6,418.792a12.825,12.825,0,0,0-1.272-1.075,13.512,13.512,0,0,0-9.889-2.618l-38.3,4.846a13.6,13.6,0,0,0-11.865,14.762c.109,1.224.232,2.513.367,3.854.175,1.682.372,3.448.6,5.275.376,3.072.835,6.315,1.381,9.614.476,2.841,1.018,5.72,1.639,8.565q.269,1.232.559,2.456a.016.016,0,0,0,0,.013c.022.1.044.2.07.3a.032.032,0,0,0,0,.022q.406,1.7.852,3.369c.113.411.223.817.336,1.219.306,1.092.63,2.163.962,3.216,2.5,7.836,5.795,14.509,10.152,18.057.057.052.114.1.175.144l.175.135.253-.079,1.075-.319.918-.28,11.957-3.6,2.976-.9,9.562-2.88h0l8.745-2.631,1.066-.323,7.512-2.259.24-2.806.324-3.723.192-2.238,1.521-17.646.887-10.3.961-11.179a13.58,13.58,0,0,0-4.139-11Z" transform="translate(-463.53 -298.275)" fill="#2f2e41"/>
  <path id="Path_33" data-name="Path 33" d="M699.234,581.212c-.1-.293-.2-.586-.3-.874-4.492-13.11-11.117-23.026-20.867-28.427,0,0,0,0-.009,0l-.166-.092-8.5,2.941-1.049.363-1.092.38-.013,0-7.953,2.753-.013,0-6.24,2.159h0l-5.773,2h0l-1.342.468-10.09,3.492-1.171.406-1.049.363-.162.057-.031.5-.721,12.638-.048.874-.9,15.771-29.9,42.35H622.3a134.772,134.772,0,0,0,20.5-1.565l19.159-20.674a1.271,1.271,0,0,1,2.159.629l2.819,13.984a135.138,135.138,0,0,0,38.456-21.16A154.758,154.758,0,0,0,699.234,581.212Z" transform="translate(-444.747 -375.309)" fill="#2f2e41"/>
  <path id="Path_34" data-name="Path 34" d="M653.776,323.121H662l3.627-10.155.725,10.155h3.929l2.116-5.924.423,5.924h29.2a22,22,0,0,0-22-22H675.78A22,22,0,0,0,653.776,323.121Z" transform="translate(-473.982 -234.167)" fill="#2f2e41"/>
  <path id="Path_35" data-name="Path 35" d="M475.273,571.144a9.958,9.958,0,0,1-13.573-7l-35.164-3.983,11.787-14.115L469.909,552a10.012,10.012,0,0,1,5.365,19.148Z" transform="translate(-346.047 -372.064)" fill="#a0616a"/>
  <path id="Path_36" data-name="Path 36" d="M429.382,474.257,414.519,471.6l-1.079-.192a6.211,6.211,0,0,1-4.855-7.905l7.3-24.249.218-.721a14.1,14.1,0,1,0-27.2-7.416L379.589,469.1l-.345,1.407a18.983,18.983,0,0,0,16.68,23.423c.031,0,.057,0,.087.009l5.572.494,7.228.642,9.09.808,8.482.756a4.446,4.446,0,0,0,4.781-3.662c.013-.061.022-.122.03-.184l1.8-13.442.018-.122A4.444,4.444,0,0,0,429.382,474.257Z" transform="translate(-319.114 -301.304)" fill="#ccc"/>
  <path id="Path_37" data-name="Path 37" d="M381.224,280.078c-5.933,11.665-10.609,23.7-23.7,23.7a23.7,23.7,0,0,1,0-47.392C370.828,256.215,392.267,258.366,381.224,280.078Z" transform="translate(-293.855 -208.977)" fill="#2f2e41"/>
  <path id="Path_38" data-name="Path 38" d="M384.1,652.9l-.538-5.366-.4.022-70.659,3.4.184,5.432.31,9.3a134.951,134.951,0,0,0,36,19.6l.459-3.557a1.269,1.269,0,0,1,2.482-.157l1.394,5.2a133.426,133.426,0,0,0,34.781,6.3Z" transform="translate(-281.844 -429.199)" fill="#2f2e41"/>
  <circle id="Ellipse_4" data-name="Ellipse 4" cx="20.786" cy="20.786" r="20.786" transform="translate(35.445 74.473) rotate(-45)" fill="#a0616a"/>
  <path id="Path_39" data-name="Path 39" d="M383.51,496.5l-4.121-12.8-.07-.219-.21-.655-1.176-3.645c-.38-1.184-.743-2.373-1.08-3.566q-.465-1.613-.869-3.234-.577-2.255-1.049-4.527a112.172,112.172,0,0,1-2.128-15.439q-.144-2.157-.206-4.322a111.716,111.716,0,0,1,2.373-26.356,35.741,35.741,0,0,0-17.629-38.705,35.143,35.143,0,0,0-14.264-4.278c-.345-.026-.691-.048-1.04-.07a35.381,35.381,0,0,0-28.379,11.476,36.086,36.086,0,0,0-4.947,6.852,35.593,35.593,0,0,0-4.073,22.589l4.912,32.981-1.119,13.884-1.32,16.361-.07.874-1.407,17.445a3.8,3.8,0,0,0,2.395,3.846,3.718,3.718,0,0,0,1.4.267c.07,0,.135,0,.205,0L379.45,501.5l.638-.035a3.8,3.8,0,0,0,3.422-4.969Z" transform="translate(-277.197 -277.797)" fill="#ccc"/>
  <path id="Path_40" data-name="Path 40" d="M388.982,277.111a28.27,28.27,0,0,1-16.156,4.993,17.325,17.325,0,0,0,6.867,2.825,57.005,57.005,0,0,1-23.285.131,15.068,15.068,0,0,1-4.874-1.674,6.169,6.169,0,0,1-3.009-4.024c-.511-2.918,1.763-5.57,4.126-7.357a30.439,30.439,0,0,1,25.579-5.111c2.857.739,5.72,1.986,7.576,4.281s2.406,5.832.637,8.2Z" transform="translate(-302.086 -214.385)" fill="#2f2e41"/>
  <path id="Path_41" data-name="Path 41" d="M380.55,562.287a9.958,9.958,0,0,1-13.721-6.7l-35.242-3.22L343.065,538l31.706,5.261a10.012,10.012,0,0,1,5.778,19.027Z" transform="translate(-292.591 -367.531)" fill="#a0616a"/>
  <path id="Path_42" data-name="Path 42" d="M333.7,466.057l-7.967-1.245-8.037-1.259a6.21,6.21,0,0,1-5.026-7.8l6.975-25.128a14.189,14.189,0,0,0-7.01-16.243,14.1,14.1,0,0,0-20.347,9.413l-8.8,39.6a18.994,18.994,0,0,0,17.266,23.065l30.428,2.041a4.451,4.451,0,0,0,4.7-3.763c.013-.061.018-.122.026-.184l1.508-13.477.013-.122A4.448,4.448,0,0,0,333.7,466.057Z" transform="translate(-265.263 -297.011)" fill="#ccc"/>
  <path id="Path_43" data-name="Path 43" d="M671.249,486.347l-1.824.995L646.958,499.6l-1.824,1a3.809,3.809,0,0,0-1.517,5.162l16.731,30.664a3.809,3.809,0,0,0,5.162,1.517l0,0,26.1-14.243,0,0a3.809,3.809,0,0,0,1.517-5.162l-16.731-30.664A3.809,3.809,0,0,0,671.249,486.347Z" transform="translate(-468.002 -338.19)" fill="#e6e6e6"/>
  <path id="Path_44" data-name="Path 44" d="M673.184,488.719l-2.16,1.179L649.23,501.789l-2.16,1.178a2.712,2.712,0,0,0-1.081,3.676l16.731,30.664a2.712,2.712,0,0,0,3.676,1.081l0,0,26.1-14.243,0,0a2.712,2.712,0,0,0,1.081-3.676L676.86,489.8A2.712,2.712,0,0,0,673.184,488.719Z" transform="translate(-469.412 -339.6)" fill="#fff"/>
  <path id="Path_45" data-name="Path 45" d="M695.969,508.53a.638.638,0,0,0-.861-.253l-.87.476-8.867,4.838a.635.635,0,0,0,.607,1.114l9.737-5.314A.638.638,0,0,0,695.969,508.53Z" transform="translate(-491.584 -350.754)" fill="#e6e6e6"/>
  <path id="Path_46" data-name="Path 46" d="M700.611,509.962a.627.627,0,0,0-.856-.249l-12.031,6.564a.633.633,0,0,0,.607,1.11l.559-.306,3.5-1.91h0l7.962-4.348a.629.629,0,0,0,.253-.861Z" transform="translate(-492.909 -351.561)" fill="#e6e6e6"/>
  <path id="Path_47" data-name="Path 47" d="M670.5,525.1l-3.819-7.005a.307.307,0,0,0-.415-.118l-1.853,1.009-.961.524-5.161,2.814-1,.546a.307.307,0,0,0-.118.415l.245.45,3.575,6.555a.3.3,0,0,0,.411.118l6.162-3.361.961-.525,1.853-1.009a.3.3,0,0,0,.122-.415Z" transform="translate(-475.871 -356.237)" fill="#e6e6e6"/>
  <path id="Path_48" data-name="Path 48" d="M702.557,528.87a.633.633,0,0,0-.857-.253l-13.206,7.206a.633.633,0,0,0-.319.669.531.531,0,0,0,.066.192.645.645,0,0,0,.127.162l0,0a.639.639,0,0,0,.73.087l13.206-7.206a.632.632,0,0,0,.249-.861Z" transform="translate(-493.343 -362.205)" fill="#e6e6e6"/>
  <path id="Path_49" data-name="Path 49" d="M707.2,530.3a.634.634,0,0,0-.861-.249l-15.5,8.456a.618.618,0,0,0-.319.66v0a.526.526,0,0,0,.065.192.608.608,0,0,0,.131.166.625.625,0,0,0,.73.087l15.5-8.456A.636.636,0,0,0,707.2,530.3Z" transform="translate(-494.66 -363.013)" fill="#e6e6e6"/>
  <circle id="Ellipse_5" data-name="Ellipse 5" cx="2.688" cy="2.688" r="2.688" transform="translate(188.04 175.256)" fill="#e6e6e6"/>
  <path id="Path_50" data-name="Path 50" d="M689.249,459.347l-1.824,1L664.958,472.6l-1.823.995a3.809,3.809,0,0,0-1.517,5.162l16.731,30.664a3.809,3.809,0,0,0,5.162,1.517l0,0,26.1-14.243,0,0a3.809,3.809,0,0,0,1.518-5.162l-16.731-30.664A3.809,3.809,0,0,0,689.249,459.347Z" transform="translate(-478.136 -322.989)" fill="#ccc"/>
  <path id="Path_51" data-name="Path 51" d="M691.184,461.719l-2.16,1.178L667.23,474.789l-2.16,1.178a2.712,2.712,0,0,0-1.081,3.676l16.731,30.664a2.712,2.712,0,0,0,3.676,1.081l0,0,26.1-14.243,0,0a2.712,2.712,0,0,0,1.08-3.676L694.86,462.8A2.712,2.712,0,0,0,691.184,461.719Z" transform="translate(-479.546 -324.399)" fill="#fff"/>
  <path id="Path_52" data-name="Path 52" d="M713.969,481.53a.638.638,0,0,0-.861-.253l-4.484,2.447-1.25.682-4,2.185a.635.635,0,1,0,.607,1.114l4.72-2.574.988-.542,4.029-2.2a.638.638,0,0,0,.253-.861Z" transform="translate(-501.718 -335.553)" fill="#ccc"/>
  <path id="Path_53" data-name="Path 53" d="M718.611,482.962a.627.627,0,0,0-.857-.249l-6.253,3.413-.961.524-4.816,2.626a.633.633,0,1,0,.607,1.11l4.816-2.626.961-.524,6.249-3.413a.629.629,0,0,0,.254-.861Z" transform="translate(-503.043 -336.36)" fill="#ccc"/>
  <path id="Path_54" data-name="Path 54" d="M688.5,498.1l-3.046-5.585-.524-.961-.249-.459a.307.307,0,0,0-.415-.118l-6.184,3.374-2.793,1.521a.307.307,0,0,0-.118.415l.249.454.271.5.253.459v0l3.046,5.585a.3.3,0,0,0,.411.118l8.976-4.894a.3.3,0,0,0,.122-.415Z" transform="translate(-486.005 -341.036)" fill="#1f2933"/>
  <path id="Path_55" data-name="Path 55" d="M720.554,501.87a.633.633,0,0,0-.857-.254l-3.946,2.154-.961.524-3.811,2.076-4.488,2.452a.635.635,0,1,0,.607,1.114l8.3-4.527.961-.524,3.946-2.154a.632.632,0,0,0,.249-.861Z" transform="translate(-503.474 -347.005)" fill="#ccc"/>
  <path id="Path_56" data-name="Path 56" d="M725.2,503.3a.634.634,0,0,0-.861-.249l-6.236,3.4-.961.524-8.3,4.527a.633.633,0,0,0,.607,1.11l8.3-4.527.961-.524,6.24-3.4a.637.637,0,0,0,.254-.861Z" transform="translate(-504.794 -347.812)" fill="#ccc"/>
  <circle id="Ellipse_6" data-name="Ellipse 6" cx="2.688" cy="2.688" r="2.688" transform="translate(195.906 163.457)" fill="#ccc"/>
  <path id="Path_57" data-name="Path 57" d="M688.8,509.362a8.645,8.645,0,0,1,1.34.24l30.481-27.04-1.971-9.7,14.251-4.888,5.158,16.834a6.573,6.573,0,0,1-2.677,7.42l-38.751,25.442a8.625,8.625,0,1,1-7.832-8.307Z" transform="translate(-488.402 -328.106)" fill="#ffb8b8"/>
  <path id="Path_58" data-name="Path 58" d="M784.938,443.461,776.3,426.969a10.259,10.259,0,0,0-12.769-6.354c-.1.026-.188.057-.284.092a10.281,10.281,0,0,0-6.319,13.08l3.466,18.227a3.691,3.691,0,0,0,1.783,2.508,3.606,3.606,0,0,0,1.652.489,3.556,3.556,0,0,0,1.411-.2l1.853-.647,11.9-4.143,3.89-1.355a3.7,3.7,0,0,0,2.058-5.209Z" transform="translate(-531.736 -301.173)" fill="#1f2933"/>
  <path id="Path_59" data-name="Path 59" d="M528.153,617.959H242.789a.437.437,0,0,1,0-.874H528.153a.437.437,0,1,1,0,.874Z" transform="translate(-242.352 -412.056)" fill="#3f3d56"/>
  <path id="Path_60" data-name="Path 60" d="M355.848,600.585v.219a7.654,7.654,0,0,0,4.558,6.992,7.532,7.532,0,0,0,3.09.656h70.576v-7.866Z" transform="translate(-306.25 -402.766)" fill="#3f3d56"/>
  <path id="Path_61" data-name="Path 61" d="M525.573,471.613a14.243,14.243,0,0,0-4.99-5.69,13.976,13.976,0,0,0-3.125-1.547,14.149,14.149,0,0,0-4.672-.791H445.051a14.219,14.219,0,0,0-14.2,14.2v39.33a13.726,13.726,0,0,0,.1,1.652,14.323,14.323,0,0,0,.5,2.421,13.959,13.959,0,0,0,.9,2.264,14.187,14.187,0,0,0,12.708,7.866h67.736a14.2,14.2,0,0,0,14.2-14.2v-39.33a14.08,14.08,0,0,0-1.416-6.175Z" transform="translate(-348.475 -325.636)" fill="#3f3d56"/>
  <circle id="Ellipse_7" data-name="Ellipse 7" cx="3.496" cy="3.496" r="3.496" transform="translate(130.662 168.321)" fill="#fff"/>
</svg>
